<?xml version="1.0" encoding="utf-8"?>
<!-- Generator: Adobe Illustrator 26.2.1, SVG Export Plug-In . SVG Version: 6.00 Build 0)  -->
<svg version="1.1"
	 id="svg6599" xmlns:cc="http://creativecommons.org/ns#" xmlns:dc="http://purl.org/dc/elements/1.1/" xmlns:inkscape="http://www.inkscape.org/namespaces/inkscape" xmlns:ns1="http://sozi.baierouge.fr" xmlns:rdf="http://www.w3.org/1999/02/22-rdf-syntax-ns#" xmlns:sodipodi="http://sodipodi.sourceforge.net/DTD/sodipodi-0.dtd" xmlns:svg="http://www.w3.org/2000/svg"
	 xmlns="http://www.w3.org/2000/svg" xmlns:xlink="http://www.w3.org/1999/xlink" x="0px" y="0px" viewBox="0 0 169 151"
	 style="enable-background:new 0 0 169 151;" xml:space="preserve">
<style type="text/css">
	.st0{fill:#2F2F2F;stroke:#000000;stroke-width:0.509;}
	
		.st1{fill:url(#rect6342_00000156581728280145603170000007672781183597562513_);stroke:#B6B6B6;stroke-width:0.624;stroke-linecap:square;stroke-linejoin:round;stroke-miterlimit:4;}
	.st2{fill:#AEA694;}
	.st3{fill:url(#path6346_00000019665474568974812490000008508637659485719459_);}
	.st4{fill:url(#path6348_00000145043201440618183300000004579291652999292549_);}
	.st5{opacity:0.6303;enable-background:new    ;}
	.st6{opacity:0.507;fill:#F0EDEC;enable-background:new    ;}
	.st7{fill:url(#path6354_00000006669942719728525120000001117520390031260839_);}
	.st8{fill:url(#path6356_00000061471985368062478780000012380822093424831935_);}
	.st9{fill:url(#SVGID_1_);}
	.st10{filter:url(#filter10006);}
	.st11{opacity:0.3922;}
	.st12{fill:#1E1E1E;}
	.st13{fill:#3C3C3C;}
	.st14{opacity:0.33;filter:url(#filter5184);enable-background:new    ;}
	.st15{fill:url(#SVGID_00000009570052700020877840000013815479591268332983_);}
	.st16{fill:#FFFFFF;}
	.st17{fill:#FFFFFF;stroke:#FFFFFF;stroke-width:0.9988;stroke-miterlimit:10;}
</style>
<filter  color-interpolation-filters="sRGB" id="filter5184">
	<feGaussianBlur  id="feGaussianBlur5186" stdDeviation="2.3536243"></feGaussianBlur>
</filter>
<filter  color-interpolation-filters="sRGB" id="filter10006">
	<feGaussianBlur  id="feGaussianBlur10008" stdDeviation="1.2652113"></feGaussianBlur>
</filter>
<g id="g4059" transform="translate(-.40346 .00016999)">
	<path id="path6340" class="st0" d="M16.2,96.8l1.8,3.3c0,0-1.4,0.8-3,1.9s-2.9,2.8-3,3.3c-0.3,1.3-2.3,13.4-4.3,25
		s-3.8,22.7-3.8,22.7l-3.7-0.6c0,0,1.9-11.2,3.8-22.7c2-11.5,3.9-23.3,4.3-25.1c0.5-2.6,2.6-4.2,4.4-5.6S16.2,96.8,16.2,96.8
		L16.2,96.8z"/>
	
		<linearGradient id="rect6342_00000103959384747539648350000008419589116327232683_" gradientUnits="userSpaceOnUse" x1="1038.1147" y1="-285.8665" x2="1038.1147" y2="-276.3465" gradientTransform="matrix(-0.8714 0.5263 -0.5263 -0.8714 783.0013 -699.1801)">
		<stop  offset="0" style="stop-color:#A0A0A0"/>
		<stop  offset="0.1558" style="stop-color:#C4C4C4"/>
		<stop  offset="0.3116" style="stop-color:#B8B8B8"/>
		<stop  offset="0.9451" style="stop-color:#EBEBEB"/>
		<stop  offset="1" style="stop-color:#B6B6B6"/>
	</linearGradient>
	
		<path id="rect6342" style="fill:url(#rect6342_00000103959384747539648350000008419589116327232683_);stroke:#B6B6B6;stroke-width:0.624;stroke-linecap:square;stroke-linejoin:round;stroke-miterlimit:4;" d="
		M34,82L13.8,94.2c-1.1,0.7-1.5,2.2-0.8,3.3l2.3,3.8c0.7,1.1,2.2,1.5,3.3,0.8l20.2-12.2c1.1-0.7,1.5-2.2,0.8-3.3l-2.3-3.8
		C36.6,81.7,35.1,81.3,34,82z"/>
	<path id="path6344" class="st2" d="M166.9,9.2c-5.1-8.8-16.4-11.9-25.2-6.8c-8.8,5.1-11.9,16.4-6.8,25.2
		c5.1,8.8,16.4,11.9,25.2,6.8C169,29.4,172,18.1,166.9,9.2z"/>
	
		<radialGradient id="path6346_00000049917640624783199630000009113652309042378396_" cx="112.3761" cy="1456.2615" r="60" gradientTransform="matrix(0.2664 -0.1538 0.1538 0.2664 -99.6502 -340.95)" gradientUnits="userSpaceOnUse">
		<stop  offset="0" style="stop-color:#F9F9F9;stop-opacity:0.6725"/>
		<stop  offset="1" style="stop-color:#F9F9F9;stop-opacity:0"/>
	</radialGradient>
	<path id="path6346" style="fill:url(#path6346_00000049917640624783199630000009113652309042378396_);" d="M166.9,9.2
		c-5.1-8.8-16.4-11.9-25.2-6.8c-8.8,5.1-11.9,16.4-6.8,25.2c5.1,8.8,16.4,11.9,25.2,6.8C169,29.4,172,18.1,166.9,9.2z"/>
	
		<radialGradient id="path6348_00000023971261481099416840000008419088475574666126_" cx="126.9861" cy="1378.3514" r="60" gradientTransform="matrix(0.2664 -0.1538 0.1538 0.2664 -99.6502 -340.95)" gradientUnits="userSpaceOnUse">
		<stop  offset="0" style="stop-color:#4D4D4D"/>
		<stop  offset="1" style="stop-color:#4D4D4D;stop-opacity:0"/>
	</radialGradient>
	<path id="path6348" style="fill:url(#path6348_00000023971261481099416840000008419088475574666126_);" d="M166.9,9.2
		c-5.1-8.8-16.4-11.9-25.2-6.8c-8.8,5.1-11.9,16.4-6.8,25.2c5.1,8.8,16.4,11.9,25.2,6.8C169,29.4,172,18.1,166.9,9.2z"/>
	<path id="path6350" class="st5" d="M162.6,31.3c-1.3,0.5,0.2-0.9,0.2-0.2L162.6,31.3z M161,31.9c-1.5,0.9,1.1-1.5,0.3-0.2L161,31.9
		L161,31.9L161,31.9z M155.4,34.9c-1.2,0.4-0.6-1.3,0.3-0.2l-0.1,0.1L155.4,34.9L155.4,34.9z M153.3,36c-0.6,0-2.1-1.5-0.5-0.9
		c0.8-0.2,1.5-0.1,0.4,0.5C152.7,35.7,153.3,35.9,153.3,36z M164,29.9c0.2-0.9-1.2,0.5-0.7-0.7C163.8,28.6,164.6,29.4,164,29.9z
		 M159.4,32.4c-1.1,0.3-2.5-2.6-0.5-1.8c0.9,0.4-1.1,0.4,0.3,0.8c-0.1,0.3-0.6,1.2,0.3,0.5C160.2,31,159.9,32.3,159.4,32.4
		L159.4,32.4z M165.4,28.7C164.1,29.1,165.3,28.1,165.4,28.7L165.4,28.7z M161.8,30.2c-1.2-0.3,1.3-1.4,0.2-0.2L161.8,30.2z
		 M153.4,34.8c-2-0.3,1.3-1.5,0.9-0.7C154.1,34.3,153.8,34.6,153.4,34.8z M149.7,36.9c-0.1,0,0.2-0.8-0.6-0.3
		c-0.9-1.3,0.7-0.2,1.1-0.5c-0.8-1.1-0.5-1.8,0.7-1.3c-0.7-0.9,1.5-0.9-0.2-1.1c-1.4,0.1,0.9-1,0.1-1.2c-0.5,0.6-2.5,1.7-2.5,0.2
		c0.5-0.3,3.1-1.9,1.2-1.2c-0.9,0.4-2.4,1-1.5,1.8c-0.6,0.7-3.1,1.4-2.8-0.1c1.4-1-0.6,0.4-0.6-0.8c-0.5,2-2.1-1.2-2-0.8
		c-0.3,0.7-0.5,2.2,0.6,1.7c-0.7-1.2,2.4,0.4,0.5,0.8c-0.9,0.2,0.3,2.1-0.9,0.9c-1.4-1.4-2.6-3.1-3.6-4.7c0.9-0.8-1.8-0.7-1.6-2.1
		c-0.7-0.9,0.5,2.6-0.1,2.4c-1.7-3-3.4-5.9-5.1-8.9c0.7,0.7,1.3,1,0.7-0.2c-0.3-1.2-1.2-2.6-1-3.8c1.1,0.8-0.1-1.8,0.1-2.4
		c-0.4-0.8,0.3-2.8,1.1-2.1c0.2-1,0.7-1.1,0.4-2c0.3-0.7,1.4,1,0.8-0.4c-0.3-1.5,1.7-0.3,1-1.5c0.5-0.8,1.3-1.2,1.9-2
		c0.5,0.6,1.4,1,1.9,0c0.8,0.8,1.5,2.8-0.2,3c1.5,0.3,1.5-1.5,2.8-2c0.9-0.8,1.8-1.1,2,0.4c1.6,3.9,3.8,7.6,5.9,11.3
		c0.3,0.9,0.4-0.6,0.3-0.7c-1-0.3-1.3-1.7-2-2.5c-0.2-0.5-1.1-1.3-0.1-1.3c0.8-0.3,1.8-0.7,1.4,0.5c1.5-1.4-1.2-1.5-2-0.8
		c-0.9-1.3-1.3-2.6-2.2-3.9c-0.2-0.5-0.9-1.3,0-1.3c1.4-0.4,0-0.6-0.6-0.3c-0.8-0.6-0.5-2.5-0.7-2.4c-1,0.4-0.2-1.8,0.6-0.7
		c0.8,0-1.1-1.2,0.3-0.7c0.2-1.4-2.2,1.5-2-0.6c-0.1-1-0.9-3,0.8-2.7c-0.5,1.3,1.8-1.3,1.7-0.2c-1.7,0.7,1.4,0.1,0.7-0.5
		c0.4-0.3,1.3-1,1-0.1c1.1,0.2,2.5-0.4,3.3,0c-1.6,0.3,1.8,0.4,0.6,1.4c1.5-0.4,2.7,1.8,1.5,2.2c0.8-0.1,1.7-0.8,2.2-0.5
		c-1.2-0.4-2.1-1.3-2.8-2.2c1,0.3,1.4,0,0.2-0.3c-1.3,0.9-2.2-2.1-0.5-0.7c0,0.7,2-0.7,1.5,0.5c-1.7-0.3,2.5,1,0.6,1.8
		c0.4,0,1.5-0.7,2-0.3c-1.2-0.4-2.7-1.8-3.2-2.6c1,0.1,1.4-0.4,0.2-0.3c-0.6,0.2-1.3,1.1-1.6,0.1c1.1-0.4,3.1-0.6,2.7,0.9
		c1.3,0.2,0.3,1.8,1.7,0.8c1.3,0.5,0.3-0.5-0.3-0.5c0.4-0.9,2.9-0.4,1-0.4c0.5,0.7,0.2,0.9,1.1,1.4c0.2,1.6-1.3-0.1-2.1-0.1
		c1,0.2,2.3,2.1,0.7,2.1c-0.5-0.8-2.1-1.3-0.6-0.2c1.3,1.6-1.2,2.2-1.7,0.7c0.8,0.9,0.6,3.2-0.9,2.8c-0.7-1.1-0.4-2,0.9-1.5
		c-1.1-0.3-2-1.1-2.3-2.2c-0.8-0.9,1.5-0.3,0.1-0.7c-0.9-0.4-2.4,1.1-0.7,0.9c2.2,0.8,0,4.1-1,1.7c0,0.6,0.9,2.3,0.1,3
		c0.8,0.4,2.8-1.2,0.8-1c-0.3-1.4,2.7-1.4,1.8,0.4c0.9,0,2.8-0.8,2.3,1.2c1.2-0.4,2.2-0.1,2,1.4c1,0.1,2.2,0.2,1.7,1.6
		c0.6-0.3,0.1-1.8,1.1-1.9c-0.9-0.8-3,1-2.6-1.1c-0.1-0.9,1.4-0.3,0.1-0.9c-0.2-2.1,2.5,0.2,1.4,0.8c-0.5,0.4,1.4,0,1.9,0
		c1,0.4,1.2-0.4,0.1-0.6c-0.1-1,1.7-1,2-0.7c-0.8-0.5-0.8-1.7,0.1-0.7c0.9,0.5,0.6,3-0.4,1.8c0-0.6-0.7-1.9-0.6-0.7
		c0.7,0.9,0.3,1.5,0,2.2c-0.9,0.9-1.4-2.3-1.2-0.5c-0.3,1-0.1,2,0.9,1.2c1.1,0,1,1.8,0.3,1.9c0.5,0.7,0.7,0.1,1.5,0.2
		c0.4,1,0.1,2.2,1.2,2.5c0,1.6,0.6,0.7,0.4-0.4c0-1.2,0.8,1.3,0.6-0.1c-0.7-0.6-2.1-0.2-1.7-1.7c-0.2-1.3,1.2-2.4,2-1.4
		c0-0.6-0.8-1.1-0.1-1.8c-0.3-0.7-1.5-2.1-0.7-0.6c0.2,0.6-0.7,0.8,0.2,1c-0.7,2.4-1.8-1.7-1.2-1.2c1.5,0.7-1-0.9,0.2-1
		c0.6-0.2,2.1,0.5,1-0.5c-1-1.8,2.5,1.9,0.6,0.4c0.2,1.2,0.4,2.4,1.4,3c0.4,0.9-0.6,1.7-0.6,0.3c0-0.7-0.9-1.8-0.5-0.4
		c0.6,0.8-0.4,2.5,1.1,1.6c0.8-1.7,1.9,1,1.4,1.2c-1.1,0.2,0.1,2.5,0.3,2.7c-1.1,0.3,1,1.4,0,1.3c-1.1,0.3-0.2-2.4-1.5-1.6
		c-0.8,0,0.7-0.6-0.6-0.5c-0.2-0.5-0.8-3.1,0.1-1.4c0.6-0.6-0.6-1.5-1.2-0.9c-0.1-0.7-0.7-3.2-0.6-1.2c0.5,1-0.9,1.2,0.2,1.6
		c1.4,0.2,1.1,3.4-0.8,3.2c-0.4,0-0.4-0.7-0.3,0.3c1.6-0.7,1.2,2.7-0.1,2.9c-1.2,0.2-0.3-2.7,0.2-1.4c0.9-1.4-2.6-0.3-1.4-2.1
		c0-0.7,1.8-0.4,0.5-1c-1,0.1-2.1-0.1-1.5-1.5c-0.1-1.3,1.1,0.7,0.6-0.5c-1.1,0.1-2.9-0.7-1.4-1.8c0.7-1-1.8-0.2-2.5,0.1
		c1.3-0.3,2,0.5,1.5,1.7c0.4-0.9-0.1,1.1,1.1,0.4c0.7,0.6,0,2,1.4,2.3c-0.9,1.4,1.6,2.2,0.6,3.3c0.1,0.3-1.1,2-2.3,1.7
		c0-0.8-0.5-1-0.4-0.3c-0.9,0.2-2.1,2-0.5,0.8c0.7-0.5,2.9,0.3,2.5,1.2c-1.3,0.6-0.9,2.3-2.5,2.7c-1.2,0.5-2.5,2.4-3.6,2.1
		c0.3-1.2-0.3-0.9-1.1-1.3c-0.3-0.6,0.7,0.1,0.9-0.4c1.1,0.9,1.9-0.1,2.7-0.8c0.8,0.3,1.5,0,0.4-0.6c0.5-0.6,2.2-1.2,1.9-2
		c-1.6,0.7-2.5,2.3-3.8,3.2c-1-0.4-2-0.3-3-0.5c-0.2-1,3.3-1.4,1.3-1.5c-0.3-0.2,0.7-1-0.3-0.8c-0.3,0.4-0.9,2.2-1.5,1.4
		c0.1-0.5,0.4-1.4-0.7-1.1c-0.5-0.7,0.7-1.8-0.8-1.5c-0.7-0.7-0.3-0.6-0.1-1.3c-1,0.3-1.4-0.1-2.3-0.6c-0.5,0-0.6,1.1-1.2,0.8
		c-0.4,1.2-1.7,0.2-1.4,1.8c-0.4,0.8,1.3,1,0.7,2.2c0.9-0.8,1.4,1.1,0,0.8c-0.7,0.2,0.3-0.9-0.5-0.1c-0.4,0.6-1.6,1.5-0.1,0.9
		c1.1-0.8,3-0.3,2.5,1.2c1.3-0.7,0.5,0.7-0.5,0.8c-0.7,1.2,2.8-1.5,1.8,0.8c-1.5,1.5,1.4-0.8,1.2,1c0.2,1.4-1.4,2.7-2.3,3.5
		C152,35,150,36.6,149.7,36.9L149.7,36.9z M166.1,27.2c-0.9,0.5,0.4-1.1-0.6-1.3c-0.6-1.3,1.5-0.5,0.3-1.3c-0.4-0.5-1,2.2-1.1,0.7
		c-0.6-1.1,0.7-1.6,1.5-0.8c0.6-0.1,0.3-2.3,0.6-0.7c0.2,1.9,0.5-2,0.6,0c0.7,0.6,1-1.6,0.8,0c-0.4,0.5-1.7,2.5-1.4,0.8
		c-0.1,0.5-1.6,1.5-0.5,1.2C167,26,166.3,26.9,166.1,27.2L166.1,27.2z M165.2,27.7c-1.9,0.9-0.4-2.8,0.1-0.7
		C165.4,27.2,165.5,27.6,165.2,27.7z M163.7,28.4c-1.2,0.7-2.7-0.9-0.8-1.2c0.9-0.2-0.3,2.1,0.6,0.6
		C163.8,27.7,164.1,28.2,163.7,28.4L163.7,28.4z M164.9,27.7C165.7,26.7,164.5,27.2,164.9,27.7L164.9,27.7z M160.1,30.2
		c-1-0.3-1.9-0.8-2.8,0.2c-0.9-0.4,1.1-1.2,1.4-1.6c0.8,0.5,1.1,0,0.5-0.6c1.1-1.7,3.5,1.3,1.6,0.9c1.2-2-2.6,1.1-0.5,0.4
		C160.6,29.8,160.3,30.1,160.1,30.2L160.1,30.2z M154,33.6c-0.8,0.5-1.9-0.3-0.5-0.3C153.6,33.3,154.3,33.4,154,33.6z M167.5,25.6
		C167.1,25.2,168.3,24.6,167.5,25.6L167.5,25.6z M148,36.5c-0.7,0.4-1.8,0.9-1.2-0.1c-0.8-1.4,0.4-0.6,0.8,0
		C147.7,36.2,148.6,36.2,148,36.5L148,36.5z M148.5,35.6c-0.6,0.8-1.7,0.2-0.7-0.4C148.2,35.4,149.6,35.1,148.5,35.6z M163.8,26.7
		c-0.7-0.3,0.7-2.3,0.7-0.7C164.3,26.3,164.1,26.6,163.8,26.7z M151.7,33.3c0.1-0.6,0.8-2-0.2-1C151.3,32.6,151,33.4,151.7,33.3z
		 M149,34.7c-1.3,1.3-2.6-0.9-0.7-0.5c0.7,0.6,0-1,1.3-0.5C150.6,33.7,149.1,34.5,149,34.7L149,34.7z M161.4,27.5
		c-1.5,0.1,1.4-2,0.7-0.5C161.9,27.2,161.6,27.4,161.4,27.5z M145.2,36.7c-0.8-0.1-0.8-0.9-1.3-0.8c0.5-0.7,0.6-0.8,0.1-1.1
		c0.1-1.3,1.2,0.3,2,0.4c-0.1-0.3-1.3-1.2-0.7-1.1c1.1,0,1.9,0.9,0.4,1.5C145.1,35.9,145.1,36.2,145.2,36.7L145.2,36.7z M163.2,26.3
		c-2.1,0.3,0.2-2.7,0.5-1C163.7,25.7,163.6,26.1,163.2,26.3z M166.3,23.3c-1,0.3-0.3-2.8,0.2-1.5c0.5-1.2-2-0.7-0.9-2.1
		c0.2-1,0.3-0.4,0.8-0.4c-0.5-1,0-1.9,1-1c1,0.5-0.2,0.9,0.4,1.8c-0.8,1.1,1.2,1.2,0.6,0.4c1.3,0.2-1.3,2.8-1.2,1.9
		c-0.3-0.6,1.9-1.1,0.7-0.9c-1.3,0.2,0.2-1.6-0.8-1.9c0.1-1.1-0.5-1.6-0.4-0.1c0.2,1.4-0.8-0.5-0.4,0.8c1.2-0.1,0.6,2.5,0.2,2.3
		C166.7,22.8,166.6,23.2,166.3,23.3L166.3,23.3z M164.2,24.4c-1-0.1,0.4-2.3-0.6-0.6c-1,1.7-2-2.1,0-1.3
		C164.7,22.7,165.3,23.7,164.2,24.4L164.2,24.4z M165.2,23.6c-0.5-0.6-0.8-2.6,0.3-1.9C165.5,22.3,165.4,23,165.2,23.6z M146.3,33.5
		c-0.1-0.9,1.6-0.3,0.3-1c-1.1-1,2-2.1,1.5-0.9c0.7-0.8,0.4-1.7-0.5-0.9c-1.9-0.5-1.4,2.2-1.7,2.8l0.1,0L146.3,33.5L146.3,33.5z
		 M157.5,26.5c1.3-1.4-1.2-0.9-0.5,0.1l0.3-0.1L157.5,26.5L157.5,26.5z M159.6,25c0.4-1-2.2-0.4-1.4,0.5
		C158.5,24.8,159.1,25.2,159.6,25z M144.5,32.3c0-0.7,0.8-0.7,1.1-0.7c-1.8-0.5,0.5-2.2,1-1.3c-0.5,1.1,1-0.9,1.1-0.5
		c-1.1-0.6-3.8-0.1-3.3,1.6C144.3,31.5,144,32.3,144.5,32.3z M149.1,29.3c1-0.4,1-1.3-0.1-0.5C147.9,29.4,147.7,30.1,149.1,29.3z
		 M156.5,25c0.7-0.2,1.7-1.9,0.4-0.9C156.8,24.1,155.8,25.3,156.5,25z M162,21.8c0.2-0.5-0.2-1.3,0.5-1.8c-0.6,0.5-2.3,1.2-1.4,1.9
		C161.3,21.8,161.5,21.5,162,21.8L162,21.8z M159.1,22.9c0.5-0.5-1.5-0.7-1.4-0.3C157.8,23.3,158.7,23.1,159.1,22.9z M167.9,17.6
		c-0.4-0.8,0-2.5-1-2.8c0.5,0.7-0.1,1.8,0.1,1.9C167.6,16.5,167.5,17.4,167.9,17.6L167.9,17.6z M155.7,24.4c0.8-0.9-1.2,0.3-0.2-0.7
		c0.6-0.4,2.2-2.2,0.6-1.3c-0.3,0.7-2.7,1.8-1.7,2.3C154.9,24.7,155.3,24.6,155.7,24.4L155.7,24.4z M158.7,22.3
		c0.4-0.5,2.9-1.8,1-1.3C159.3,20.9,157.9,22.2,158.7,22.3z M142.6,30.8c1-0.8,0.3-2.4,2.1-2.3c0.4-1-2.3,0.1-1.9,1.2
		C142.9,30,141.8,30.9,142.6,30.8L142.6,30.8z M140.8,31.8c1.1-0.8,0-2.6-0.9-2C141.5,30.1,140.2,31.1,140.8,31.8z M145.1,29.3
		c1-1,0.5-2.4,2.3-2.6c1.4-0.9-1.1,0-0.4-1.1C146.2,26.6,145.2,28,145.1,29.3L145.1,29.3z M158.5,21c0.4-0.4-1.8-0.4-1.4-0.3
		C156.7,21.5,158.1,21.1,158.5,21z M160.3,19.6c0.7-0.4,1.6-2.6,0.4-1c-0.5,0.8-2.1-0.2-0.7,1l0.2,0.1L160.3,19.6L160.3,19.6z
		 M154.9,22.7C156.4,21.9,154.5,22,154.9,22.7L154.9,22.7z M168.1,15c0.5-1-1.3-1.3-0.4-0.1C167.8,15.1,167.9,15.1,168.1,15z
		 M157.9,20.4c0.7-0.4,1.7-2,0.2-0.9C157.9,19.5,157.3,20.7,157.9,20.4z M154.5,22c0.6-0.3,2.5-2,0.7-1.2c-1.1,0.5-0.1-1-1.2-0.1
		c-0.7,0.3-1.9,0.7-0.4,0.4c1.1-0.3,1.6,0.1,0.7,0.8l0.1,0.1L154.5,22L154.5,22z M144.9,26.8c-0.1-0.6,0.5-2.2-0.5-0.8
		C144.1,26.4,144.3,27,144.9,26.8z M142.1,28.3c0-0.6,0.6-2.1-0.4-0.7C141.3,28,141.3,28.6,142.1,28.3z M158.8,18.5
		c0.3-1,1.1-1.3,1.7-1.1c-0.7-1.1-2.5-0.5-1.7,0.8L158.8,18.5L158.8,18.5z M139.5,29.6c0.6-0.5,1-2.4,0-1
		C139.4,28.8,139,29.6,139.5,29.6z M157.5,19.2c0.4-0.6-1.6-0.3-0.2-1.1c0.6-1.7-1.8,1.4-0.9,1.3C156.7,19.4,157.1,19.3,157.5,19.2z
		 M146.7,25c0.2-1-2.6,0.4-0.5,0.2l0.2,0L146.7,25L146.7,25L146.7,25z M167.6,12.7c-1-0.3-1.4-2.1-0.7-2
		C166.7,11.5,167.7,12,167.6,12.7z M153.4,20.4c0.5-0.3,2.6-2,0.9-1.3C154,19.3,153.3,20.1,153.4,20.4z M151.1,21.5
		c1.1-1.1-1.5-0.5-0.3,0.1L151.1,21.5z M138.9,28c-0.4-0.8-0.1-1.6,0.4-2.2c-0.1-0.2-1.5,1.3-1.5,2.2C138.7,27,138.3,27.7,138.9,28
		L138.9,28z M143.9,25c0.1-0.5,1-2.1-0.1-1.1C143.6,24.2,143.1,25.1,143.9,25z M140.1,27.2c0.7-0.3,2.1-3.4,0.8-1.7
		C140.6,26,140,26.8,140.1,27.2z M163.4,13.6c-1.2,1.1-1.5-2.7-0.3-1.3c0.3-0.4-1.5-1.2-0.1-1.4c1.3,0.5,0.2,1.9,0.6,2.5L163.4,13.6
		L163.4,13.6z M157.5,16.9c0.5-0.8,0.5-1.8,1.7-1.6c-0.6-0.9-2.3-0.1-1.7,1C157.5,16.4,157.3,16.9,157.5,16.9L157.5,16.9z
		 M156.5,17.5c-0.9-0.5-0.3-2.4-1.2-0.9C155.3,17.2,156,17.4,156.5,17.5z M145.9,23.4c-0.3-1.1-2.2,0.5-0.3,0.1L145.9,23.4
		L145.9,23.4z M142.8,25c0.1-1-2,0-0.3,0.1L142.8,25z M152.4,18.9c0.6-0.7,2-2.1,0.3-1.1C152.4,17.9,151.9,19.1,152.4,18.9z
		 M143.2,23.3c0.5-0.6,1.4-2.4,0.1-1C143.1,22.5,142.1,23.6,143.2,23.3z M153.1,17.3c0.3-0.9,1.1-1.4,1.6-1.7
		C153.8,15,153.1,16.5,153.1,17.3z M145.3,21.7c0.4-1.1-2.1,0.1-0.5,0.1l0.3-0.1C145.1,21.8,145.3,21.7,145.3,21.7z M140.5,24.5
		c-0.6-0.3,1-2.1-0.3-1.1C139.6,24,139,25,140.5,24.5z M156.2,15.1c0.3-0.8,0.5-1.8,1.3-1.7C155.8,12.1,156,14.3,156.2,15.1z
		 M151,17.5c1-0.5,0.3-1.9-0.2-0.5C150.8,17,150.7,17.6,151,17.5z M164.1,9.7c-0.6-1.6-2.4-2.2-3.1-3.7c-0.1-0.7,0.8,0.9,0.6-0.3
		c-1.8-0.5,0.2,1.6-0.1,2c-0.1,0,0.5,1.4-0.6,0.8c-0.4-0.7-1.6-1.6-0.7-0.2c0,0.8,0.9,2.1-0.4,1.5c-1.4,0.5-1.1-2.7-2.8-1.6
		c-0.2-0.7-1.3-1.5-0.5-0.3c0.3,1.1-0.2,2.3-1.4,2.1c0-0.7-0.8-2.5,0-1.6c1.6,0-1.5-0.8,0.2-1.3c0.7-0.5,2.9-0.1,1.1-1
		c-0.2-1.2,1.7,0.1,1.6,1c0,1,2.3,1.4,0.7,0.8c-0.7-0.6,1.5-0.8,0.9-1.2c0.8-0.7,1.5-1.3,0.2-2.4c0.4-1.4,1,0.9,1.8,1
		c0.4,1.2,1,2.2,1.9,3.1c0.3-0.5-1.4-1.8-0.5-1.4c0.7,0,2.1,1.3,2.3,1.7c-0.9,0.3-2.1-1.6-1.2,0C164.4,8.8,164.4,9.3,164.1,9.7
		L164.1,9.7z M137.4,25c1.1-0.5,0.7-1.7-0.1-0.4C137.1,24.8,136.9,25.4,137.4,25z M141.7,22c1-0.4,1.3-1.3,2.1-1.9
		C142.8,19.9,142.2,21.2,141.7,22z M144.9,19.9c0.5-0.8-1.9,0-0.2,0.1L144.9,19.9z M150.4,16.6c1.6-1.1-1-0.4-0.7,0.3
		C149.9,16.8,150.2,16.7,150.4,16.6z M135.6,24.9c-1.2-0.8-0.5-1.9,0-2.6c-1.1,1.3-1.6-0.4-1.6-1.2c-1.1,0.6,0.6,2.8,1.2,3.7
		C135.3,24.9,135.5,25,135.6,24.9L135.6,24.9z M139.9,22.4c-0.3-0.4,1.2-2.1,0-1.1C139.3,21.8,138.3,22.6,139.9,22.4z M151.8,15.2
		c0.3-0.6,1.1-1,1.1-1.1C155.1,13.9,150.4,13.3,151.8,15.2z M154.6,13.4c0-1,0.7-1.9,1.4-1.8c-1-0.5-2.3,0-1.5,1.3l0,0.4L154.6,13.4
		L154.6,13.4z M137.1,23.2c0.1-0.6,1-2-0.2-1.1c-0.4,0.6-1.3,2.1-0.1,0.9C136.9,22.9,137,23.1,137.1,23.2L137.1,23.2z M142.6,19.4
		c0.7-0.5,1.8-1.6,0.2-0.8C142.2,18.7,140.9,20.2,142.6,19.4z M150,14.7c0.8-0.7,1.1-2.8,0-1.6C150.3,13.5,149.6,14.4,150,14.7z
		 M153.1,12.6C153.7,12,152,12.5,153.1,12.6L153.1,12.6z M152.1,13c-0.2-0.8-1.8-0.6-0.4,0L152.1,13z M139.5,20.3
		c-0.2-0.5,1.9-1.7,0.1-1C138.9,19.5,138,20.5,139.5,20.3z M147.8,15.1c1-0.4,0.1-1.7-0.1-0.3C147.6,14.6,147.6,15.3,147.8,15.1z
		 M162.8,6.4c-1.1-0.2-0.2-1.7,0.1-0.2L162.8,6.4L162.8,6.4L162.8,6.4z M137,21.2c-1.1-0.7,1.6-2-0.1-1.6
		C135.4,20.4,136.2,20.5,137,21.2z M152.7,11.9c-0.2-1,0.8-1.6,1.3-1.8c-1-0.4-2.4,0.1-1.5,1.2C152.6,11.6,152.4,12.2,152.7,11.9
		L152.7,11.9z M142.7,17.6c1.6-1.2-1.3-0.6-1,0.3C142,17.9,142.4,17.7,142.7,17.6z M148.5,13.2c-0.4-1,1.3-1.5,1.3-1.9
		c-0.7,0.2-2.5-0.1-1.5,1.3C148.3,12.8,148.2,13.3,148.5,13.2L148.5,13.2z M151.2,11.4c0.3-1-1.1-1.5-0.4-0.2l0.2,0.1L151.2,11.4
		L151.2,11.4L151.2,11.4z M159.1,6.7c-1-0.1-2.9-2.6-0.7-2.4c0.5-0.4,1.6,0.8,0.5-0.3c-0.9,0-2.4-2.5-0.8-1.2
		c0.9,0.5,2.5,1.6,1.9,2.6c-0.6-0.2-2.1-1.4-0.9-0.2C159.4,5.6,159.6,6.4,159.1,6.7L159.1,6.7z M137,19c-0.3-0.9,0.1-1.2,0.8-1.7
		c-0.8-0.3-2.5,0.9-1,1.5L137,19L137,19L137,19z M147.1,12.9c0.3-0.5-1.6-0.4-0.3,0L147.1,12.9z M146.6,12.2
		c-0.3-0.7,1.2-2.2-0.4-1.4C145.9,11.1,146.5,11.8,146.6,12.2z M158.3,5.4c-0.1-0.9-1.6-0.6-0.2,0L158.3,5.4z M140,16
		c-0.3-0.8,2.3-1.7,0.5-1.1c-0.6,0.3-1.6-0.4-1.3,0.8C139.4,15.9,139.7,16,140,16L140,16z M133.7,18.9c0.3-0.6,0.6-1.2-0.2-0.3
		C133.3,18.6,133.5,19.1,133.7,18.9z M137.5,16.4c-0.5-0.9,2-1.9,0-1.6C136.5,15,136.8,16.2,137.5,16.4z M148.6,9.9
		c-0.6-0.9,0.4-1.6,0.8-1.9c-0.6,0.1-3.2,0.7-1.4,1C148.3,9.1,148.2,9.8,148.6,9.9L148.6,9.9z M141.5,13.1c0.5-1.2-3.4,0.9-1,0.2
		C140.9,13.3,141.2,13.2,141.5,13.1z M147,9.4c-0.2-0.2-1.7-1.6-0.8-0.1C146.3,9.6,146.7,9.6,147,9.4z M147.9,8
		c0.5-0.9-1.4-1.9,0.1-2.5c-0.6,0-2.3,0.4-1.7,0.8C147.1,6.4,147.8,7.3,147.9,8L147.9,8z M150.1,6.3c1.3-0.8-1-0.2-1.2-1.2
		c-2-0.6,1,0.4,0,1.6C149.2,7,149.8,6.4,150.1,6.3L150.1,6.3z M138.9,12.7c0.4-1-2.6,0.7-0.4,0.2l0.2-0.1L138.9,12.7L138.9,12.7
		L138.9,12.7z M136.2,14c0.6-0.5,0.3-1.6,0-0.4C136.2,13.4,135.9,14.1,136.2,14z M146.4,8c1.2-1.3-1.3,0-1.2,0.5
		C145.6,8.3,146,8.2,146.4,8z M155.1,2.2c-0.9,0.1-1-1.3,0.1-0.5C155.9,1.1,155.5,2,155.1,2.2z M133.7,14.4
		c-0.3-0.9-2.1,0.2-0.6,0.1l0.4-0.1L133.7,14.4L133.7,14.4z M135.4,13.4c0.4-0.7,2.6-1.4,0.7-1C136,12.6,134,13.9,135.4,13.4z
		 M133.7,14c0.3-0.6,1.5-1.6,0.2-0.8C133.7,13.4,133.7,13.7,133.7,14z M150.3,3.9c-0.4-0.8-2.2-0.4-0.6-0.1l0.4,0.1L150.3,3.9
		L150.3,3.9z M136.2,12c-0.1-0.7,1.9-1.6,0.3-1.3C136.3,10.8,135.8,11.9,136.2,12z M149,4.2c-0.6-0.3-2.4-0.5-3-0.1
		c1.2-0.4,1.2,1.5,2.3,0.2C148.5,4.2,148.8,4.2,149,4.2L149,4.2z M146.3,5.5c-0.3-1-2.1,0.2-0.5-0.2l0.3,0.1L146.3,5.5L146.3,5.5z
		 M150.3,3c-1.2-0.1-2.5-0.5-3.7-0.5c-0.3,0.7,1.9,0.5,1.9,0.8C149,2.9,149.7,3,150.3,3z M135.8,10.7c0.8-0.3,1.4-1.6,0.3-0.5
		C135.9,10.4,135,11.2,135.8,10.7z M144.7,5.3c1.5-1.2-1.1-0.3-1.2-0.5C143.9,5,144.3,5.5,144.7,5.3z M137.5,9.3
		c-0.3-0.9-1.8,0.3-0.2,0.1L137.5,9.3L137.5,9.3z M150.6,1.8c-0.8-0.1-2.5,0.4-2.7-0.2c0.9-0.3,1-0.4,1.6-0.2
		C149.7,1.2,150.9,1.3,150.6,1.8L150.6,1.8z M138.7,7.7c-1.7,0.3-0.5-1.2,0.4-1.4C139.4,4.8,139.6,7.9,138.7,7.7z"/>
	<path id="path6352" class="st6" d="M162.3,31.1C161,31.6,162.9,30.1,162.3,31.1L162.3,31.1z M160.7,31.7
		C159.5,32,162.2,30.5,160.7,31.7L160.7,31.7z M153,35.8c-1.5-0.3-0.6-1.4,0.5-0.9C153.5,35.4,152.1,35.3,153,35.8z M163.7,29.6
		c0.1-0.6-1.5,0.1-0.5-0.8C163.8,28.6,164.1,29.2,163.7,29.6z M159,32.2c-1.4-0.4,0.3-0.7,0.6-0.8C159.4,31.7,159.2,32,159,32.2z
		 M161.5,30c0.5-1.1-0.3-0.2-0.3-0.5C162.1,28.8,162.2,29.5,161.5,30z M153.1,34.5c-2-0.5,1.9-1.5,0.6-0.5
		C153.7,34.3,153.3,34.3,153.1,34.5z M149.4,36.7c0.3-0.7-1.2-0.3-0.3-0.7c1.1,0.3,0.5-0.8,0.7-1.1c-1.1-0.1,0.3-0.4,0.6-0.3
		c-0.2-1,0.8-0.5,0.5-1.4c1.3,0.1,0.3-3.4,1.5-1.5c0,1.1-0.8,1.5-1.2,2.5c-0.5,0.6-1.4,0.9-0.9,1.4C150.1,36,149.7,36.2,149.4,36.7
		L149.4,36.7z M165.8,27c-0.8,0.1,0-2.5,0.5-1.1C166.2,26.4,166,26.7,165.8,27z M164.9,27.5c-1.3,0.6-0.8-1.1-0.3-1.3
		C164.9,26.4,165.4,27.2,164.9,27.5z M158.1,31.4c-0.4-0.2,0.6-1.2-0.5-1c1.1-0.6,1.1,0.6,1,0.6C158.6,31.2,158.2,31.2,158.1,31.4
		L158.1,31.4z M163.4,28.1c-0.6,0.7-2.7-0.6-1-0.4c1.3-0.9-1-0.2-0.2-0.6c1-1.1,0.5,1.9,0.8,0.5C163.4,27.4,163.9,27.8,163.4,28.1z
		 M159.9,29.9c-1-0.4-2-0.3-3.1-0.1c0.6-1.2,1.7-0.3,2.5-0.5c0.4-0.7-1.3-0.2,0-0.7c-0.7-1.1,1.8-1,0.4,0.1
		C158.5,30.3,160.8,28.8,159.9,29.9L159.9,29.9z M153.7,33.4c-0.4,0.1-0.5-0.5-1.2-0.2C152.8,33.1,153.9,32.9,153.7,33.4z
		 M161.3,28.8c-0.9,0.2-0.7,0.2-0.6-0.6C159.7,26.9,161.7,28.4,161.3,28.8z M147.7,36.3c-0.6,0.9-2.2,0.2-0.8-0.2
		C147.1,36.3,148.4,35.9,147.7,36.3z M166.6,25.1c0.5-2-1.4,1.4-1.1-0.4c0.6,0.3,0.5-0.8,1.4-0.8c-0.3-1,1,0,1.1-0.9
		C168,23.9,167.1,24.6,166.6,25.1L166.6,25.1z M148.5,35.2c-0.5,0-1.8,1-1.2-0.2C147.5,35,149.1,34.9,148.5,35.2z M164.1,25.8
		c-0.8-0.1-1,0.4-0.5-0.6C164,24.8,164.2,25.6,164.1,25.8z M148.7,34.5c-0.4,0.6-2.6-0.1-1-0.3c0.8-0.1,0.6,0.1,0.9-0.6
		c1.1-0.4,1,0.6,0.1,0.6C148.6,34.2,148.8,34.4,148.7,34.5L148.7,34.5z M160.9,27.3c-1.1-0.7,2.1-1.5,0.3-0.5
		C161.1,26.9,160.7,27.1,160.9,27.3z M144.9,36.5c-1.3,0-0.6-2,0.4-1.2c-1.6,0,0.5-1.1,0.1,0.1C145.1,35.7,144.5,36,144.9,36.5
		L144.9,36.5z M162.9,26c-1.8,0.3,0.5-2.1,0.3-1.3c-0.9-0.1-0.6,1.9,0,1C163.1,25.9,163,26,162.9,26L162.9,26z M165.2,24.5
		c-0.6-0.2-1.1,0.6-0.6-0.6C164.9,23.8,165.4,24.2,165.2,24.5z M150.7,32.6c0-0.4-1-0.3-0.2-1C151.5,30.6,150.8,32.3,150.7,32.6z
		 M158,28.3c-0.6-0.4-2.6,1.9-1.7,0.3c1.1-1.2,2.9-1.4,3.6-2.6c0.7-0.5,1-2.4,2.1-2.1c-1.1,1.3-1.6,3-3.3,3.4
		C158,27.4,158.4,28.1,158,28.3L158,28.3z M149.4,33.2c-1,0.1-1.8-0.4-0.5-0.7c0.8-0.4,1.6-1,0.6,0.2
		C148.9,33,149.8,33.1,149.4,33.2L149.4,33.2z M165.9,23.1c0-1.3-0.7,0.7-0.5-0.8c-0.1-0.5,0.7-1.1,0.8-0.3c0.5-1.1,0.3,0.7-0.3,0
		C166.4,22.3,166.3,22.9,165.9,23.1L165.9,23.1z M166.9,22.6c0.2-0.9,0-0.8,0.9-1.4c-1.4,0.2,0-0.3,0.3-0.7c0.3-0.6,0.3,1-0.5,1.2
		C167.4,22,167.1,22.2,166.9,22.6L166.9,22.6z M143.7,35.9L143.7,35.9L143.7,35.9z M163.7,24.2c-0.9-0.9,0.8-2.4,0.6-0.9
		C163.9,23.5,163.4,23.7,163.7,24.2z M164.9,23.4c-0.9-0.6-0.1-3.1-0.1-1.1C164.9,22.6,165.1,23,164.9,23.4z M147.6,33.3
		c-0.9,0-2.1,1.2-2.8,0.1c1.1,0.4,2.5-0.7,2.1-1.5c0.4-0.9,3.5-1.7,1.6-0.6C147.3,31.7,147.5,32.6,147.6,33.3L147.6,33.3z
		 M162.9,24.1c-1.3-0.3,0.8-2.7-0.1-0.6C162.9,23.9,163.6,23.7,162.9,24.1z M143.2,35.4l0.1-0.1L143.2,35.4z M151.4,30.5
		c-1,0.1-1.6,0.6-0.8-0.5C150.9,29.2,151.5,30,151.4,30.5z M156.6,27.5c-0.4-0.8-2.7,0.1-2.2-0.8c1.5,0.5,2.9,0.4,3.6-1.1
		c0.6-0.6,3.2-2.3,1.6-0.7C158.4,25.7,157.9,26.5,156.6,27.5L156.6,27.5z M142.9,35.2c-1.6-0.6,0.9-3.3,1-1.6
		C142.3,33.7,143.4,34.6,142.9,35.2z M166.6,21.1c-1.2,0.3-0.5-2.1-0.3-0.3C166.4,20.9,166.8,20.8,166.6,21.1z M167.3,20.4
		c-0.4-0.3-1.1-2.3-0.3-2C167.5,18.6,167.2,19.7,167.3,20.4z M168.4,19.5c-1.2-0.6-0.5-2.3-1.1-3.5c1,1,0.6,2.3,1.2,3.2
		C168.5,19.3,168.4,19.4,168.4,19.5L168.4,19.5z M145.4,32.6c-1.1,0.6-0.1-1.4-0.2-1.9c0.5-1,0.9-0.2,1.7-0.8c1.6,0.7-2.5,0.3-1.5,2
		C146.2,32.7,145.1,31.8,145.4,32.6L145.4,32.6z M150.5,29.4c-0.6-0.2-2.8,1-1.3-0.1C149.4,29.1,150.8,28.7,150.5,29.4z M163.7,21.7
		c-1.2-0.6,1.2-1.9,0.6-2.9c0.3,0.1,0.2,1.5,0.4,2c-0.4,0.3-0.3-0.8-0.8,0.2C163.7,21.2,163.6,21.5,163.7,21.7L163.7,21.7z
		 M156.4,25.8c-1.4,0.4,0.9-2,0.2-0.2C156.5,25.7,156.4,25.7,156.4,25.8z M144.1,32.8c-0.9,0.1-1.3-0.5-0.6-0.8
		C143.7,31.8,144.5,32.6,144.1,32.8z M161.3,22.8c-2,0.3,0.4-1.2,0.8-1.9c0.9-1-1.8-2.7-0.3-3.3c-0.4,1.3,1.1,2.4,0.9,3.6
		C163.2,22,160.7,21.7,161.3,22.8L161.3,22.8z M166.2,19.9c-0.5-0.4-1.3-0.3-0.6-0.7C165.8,18.8,166.7,19.2,166.2,19.9z M158.5,24.3
		c-0.6-0.2-2,1-1.2-0.4C157.5,23.7,159.1,23.7,158.5,24.3z M149.9,28.7c-0.8,0-1.2-1.7-0.2-0.6C149.8,28.2,150.1,28.5,149.9,28.7z
		 M160,22.6c-0.8,0.3-2.9,1.2-1.2,0C159.8,21.3,159.1,21.6,160,22.6z M149.3,28.7L149.3,28.7L149.3,28.7z M142,32.9
		c-1.5,0.2-0.1-3.4,0.1-0.9C142.1,32.3,142.1,32.6,142,32.9z M154.4,25.5c-1.4,1.1-0.5-1.6,0.4-1C153.8,24.8,155.6,25.3,154.4,25.5z
		 M143.4,31.6c-0.7,0,0.8-0.9-0.2-0.4c-0.9-1.9,2.7-3.1,3.2-2c-1.2,0-3,0.7-2.6,1.7C143.4,30.9,143.8,31.5,143.4,31.6L143.4,31.6z
		 M148,28.7c-2,1,0.7-1.5,0.7-0.7C147.7,28.1,149.1,28.2,148,28.7z M155.4,24.3c-0.5-0.5,2-1.9,0.7-0.5
		C155.9,24,155.7,24.2,155.4,24.3z M166.9,17.6c-0.5,0.1-0.1-0.7-0.5-0.7C166.7,16.8,166.9,17.4,166.9,17.6z M160.8,20.8
		c-0.3,0.4-1.4,0.4-0.7-0.2c-1.1,0.2,2.2-2.3,0.8-0.4C160.8,20.4,160.7,20.6,160.8,20.8z M158,22.3c-0.5,0.2-1.9-0.2-1.1-0.5
		C157.2,22,158.5,21.5,158,22.3z M165.2,18.1c-0.8,0.5-3.3,0.1-1.2-0.4c1.8,0.2,0.5-2.5,1.2-2.3c0.1,0.8,1,2-0.1,2.1l0,0.2
		L165.2,18.1L165.2,18.1z M148.7,27.1c-1.2,0.5-0.8-0.5-1.5,0.3c-0.6,0.5-2,0.4-0.7-0.3c0.8-1.2,0.4,0.2,1.3-0.4
		C148.5,26.1,149.1,26,148.7,27.1L148.7,27.1z M153.9,24c-2.1-0.1,1.3-1.8,1.5-2.4C156.8,21.5,153.7,23.3,153.9,24z M167.6,15.8
		c-0.8-0.6-0.3-1.2,0.1-1.3c-0.4-0.5-0.6-1.7,0.1-0.6C168.8,15.2,167.7,15,167.6,15.8L167.6,15.8z M157.6,21.6
		c-0.7-1,3.1-2.1,1.1-0.8C158.3,21.1,157.9,21.3,157.6,21.6z M141.6,30.1c-0.5-1.1,1.1-3.4,2.3-2.4C142,27.7,142.5,29.3,141.6,30.1z
		 M139.8,31.2c-1-0.8,0.8-2,0.2-0.3l-0.1,0.2L139.8,31.2L139.8,31.2z M144.5,27.9c-0.1-0.9,1.1-3.4,2-2.2c-0.5,0.6-1.7,0.8-1.7,2
		L144.5,27.9L144.5,27.9z M147.9,25.8c-1.3,0.7-0.8-2.1-0.1-0.4l0.1,0.2L147.9,25.8L147.9,25.8z M157.4,20.3
		c-0.9,0.6-2.3-0.6-0.7-0.3C156.9,20.1,157.5,19.9,157.4,20.3z M162.8,17.2c-1,0.4-1.9-0.8-0.4-0.4C162.6,16.8,162.8,17,162.8,17.2z
		 M165.8,15.2l0.1-0.2L165.8,15.2z M159.3,18.9c-0.8-0.1-1.1-1.2,0-0.7c0.7-0.7,1.4-1.4,0.7,0C160,18.8,158.7,18.4,159.3,18.9
		L159.3,18.9z M164.4,15.8c-0.4-0.3-1.1,0-0.9-0.5C163.8,15.4,164.3,15.5,164.4,15.8z M156.9,19.7c-1-0.7,2.1-2,0.5-0.5
		C157.2,19.4,157,19.6,156.9,19.7z M161.1,17.2c-1.4,0-0.3-2.7-0.3-0.6C161,16.8,161.1,17,161.1,17.2z M163.2,15.9
		c-1.4,0.2-0.5-3.1-0.4-0.9C162.8,15.4,163.5,15.4,163.2,15.9z M137.3,30.7c-0.5-0.6-1.3-3.1-0.7-3C137,28.6,137.5,29.7,137.3,30.7z
		 M153.4,21.4C152.8,20.8,154.6,20.9,153.4,21.4L153.4,21.4z M164.6,14.8c-1.1,0.2-0.7-0.6-0.6-0.9
		C163.8,11.6,164.6,14.4,164.6,14.8z M154.2,20.7c-0.2-0.9-3.8,0.6-1.6-0.4c0.7-0.3,2-0.2,2.3-0.1C154.6,20.4,154.4,20.5,154.2,20.7
		L154.2,20.7z M147,24.7c-1.1-0.3-0.5-2.4,0.4-2.2c0.7-0.6,0.9-1,1.7-1.3c1.5,0.4-0.8,1.4-1.3,1.9C146.7,23.2,147.3,24.1,147,24.7
		L147,24.7z M165.6,13.8c-1,0,0.1-1.4-0.5-1.9C165.1,12,166.2,13.6,165.6,13.8z M166.2,13.3c0-1.7-1.9-2.5-1.2-4.2
		c-1.1-1.7,1.8,1.5,0.3,0.5c-0.2,1.4,1.1,2.3,1.4,3.2C166.6,13,166.4,13.2,166.2,13.3L166.2,13.3z M143.9,26.1
		c-1.7,0.3,0.9-2.5,0-0.5C143.7,25.8,144.1,25.9,143.9,26.1z M141,27.7c-1.6,0.2,0.9-2.6,0.1-0.3l0,0.2L141,27.7L141,27.7z
		 M167.2,12.4c-1.3-0.1-1-3.2-0.6-1.2C166.9,11.7,167.2,12,167.2,12.4z M157.7,17.8c-0.5-1.2,0.6-2.4,1.6-1.3
		C158.4,16.6,157.9,16.9,157.7,17.8z M138.4,28.9c-0.9-0.7,1.4-2.3,0.3-0.7C138.6,28.5,138.6,28.8,138.4,28.9z M156,18.6
		c-1.8,0.8-0.2-2,0.4-1.7c-0.4,0.6-0.7,0.9-0.2,1.4L156,18.6L156,18.6z M145.6,24.4c-0.9,0.8-1.8-0.5-0.3-0.3
		C145.4,24,146,24.2,145.6,24.4z M161.6,15.1c-0.8,0.1-2.2-0.7-0.6-0.4C161.2,14.7,161.5,14.8,161.6,15.1z M164.6,12.7l-0.2,0
		L164.6,12.7z M152.4,19.8c0-0.8,2.5-2.3,1.1-0.9C153.1,19.2,152.7,19.4,152.4,19.8z M162.7,13.5c-1.1,0.1-0.1-1.4,0-1.6
		c-0.3-0.9-0.2-1.6,0.3-0.4C163.4,12.2,162.9,12.9,162.7,13.5L162.7,13.5z M159.6,15.1c-0.7,0.4-0.2-1.3-0.7-0.4
		c-0.3-0.8,0.7-1.7,0.6-0.4C160,14.4,159.5,14.9,159.6,15.1z M164.2,12.5c-0.8-0.2-0.4-1.3-0.4-1.6c0.5-0.5-0.7-1.6,0.3-0.5
		c0.6,0.8-0.1,1.4,0.2,2L164.2,12.5L164.2,12.5z M161.1,14.1c-0.6-0.4,0-1.6,0.1-1.8C161.5,13.5,162.6,13,161.1,14.1z M146.1,22.7
		C144.8,23.3,146.2,21.5,146.1,22.7L146.1,22.7z M142.9,24.3c-1.5-0.3,1.5-2.3,0.1-0.6C142.9,23.9,143,24.1,142.9,24.3z M139,26.5
		c-0.2-0.8,2-3.3,1-1.3C139.7,25.7,139.4,26.2,139,26.5z M137.6,27.2c-0.1-0.9-1.4,0.7-0.6-0.8c0.3-0.8,1.8-2,0.6-0.5
		C137.5,26.4,137.8,26.8,137.6,27.2L137.6,27.2z M156.4,16.2c-0.8-1,0.7-2.8,1.6-1.6C156.9,14.4,156.9,15.6,156.4,16.2z M144.8,22.7
		c-1,0.8-1.5-0.8-0.1-0.3C144.7,22.5,144.9,22.6,144.8,22.7z M155,16.7c-1.6,0,0.1-2.4-0.1-0.6l0.1,0.3L155,16.7L155,16.7z
		 M149,19.9c-2.4-3.6-4.3-7.4-6.1-11.3c-0.2-2.2,0.7,0.7,1,1.4c0.5,1.5,1.6,2.8,2.2,4.3c0.8,1.7,1.8,3.4,2.9,4.9
		C148.9,19.5,149,19.7,149,19.9L149,19.9z M151.2,18.3c-1-1,2.3-2.1,0.7-0.9C151.3,17,151.5,18.2,151.2,18.3z M160.2,12.9
		c-0.6,0.7-2.5-0.1-0.9-0.4C159.5,12.4,160.5,12.4,160.2,12.9z M142.1,22.6c-1.4-0.2,1.9-2.4,0.5-0.8
		C142.3,22.1,142.4,22.5,142.1,22.6z M150.9,17.5C150.2,17,152,16.6,150.9,17.5L150.9,17.5z M161.4,11.4c-1.8,0.3,0.7-1.9-0.7-2.7
		c0.9,0.2,1.1,1.5,0.7,2.2C161.8,11.2,161.5,11.2,161.4,11.4L161.4,11.4z M152,16.6c-0.4-1,1.8-2.4,1.3-1.5
		C152.6,15.3,152.3,16.1,152,16.6z M158.2,13.1C157.2,13.5,157.8,12.5,158.2,13.1L158.2,13.1z M144.2,21
		C142.6,21.9,143.8,19.6,144.2,21L144.2,21z M159.7,12.1c-0.7-0.6-0.2-3.1,0.4-1.1C160.2,11.3,160.1,11.9,159.7,12.1z M139.3,23.8
		c-2.2,0.6,1.3-2.6,0-0.6C138.9,23.5,139.7,23.6,139.3,23.8z M155.1,14.4c-0.6-0.9,0.3-3,1.3-1.7C155.3,12.4,155.6,13.9,155.1,14.4z
		 M162.8,10c-1.4,0.2,0.1-1.7-0.8-2.4C163.1,8.3,162.8,9.3,162.8,10z M163.9,9.1c-1.2,0.2-0.7-2.9-0.1-1
		C163.3,8.4,164.4,8.7,163.9,9.1z M165.2,8.2c-0.6,0.3-2-0.7-0.7-0.5c-0.6-0.2-1.7-1.6-0.5-0.5C164.4,7.6,164.8,7.9,165.2,8.2
		L165.2,8.2z M149.9,16.8c-0.5-0.6,1.3-1.2,0.2-0.2C150,16.7,149.9,16.8,149.9,16.8z M136.3,24.4c-1-0.1,1.6-1.8,0.3-0.3
		C136.5,24.2,136.4,24.3,136.3,24.4z M141.1,21c-0.9-1.1,2.7-2.1,0.8-0.9C141.9,20.5,141.5,20.8,141.1,21z M158.5,11
		c-0.7,0.6-2.6-0.1-0.9-0.4C157.8,10.5,158.8,10.4,158.5,11z M160.3,9.6c-0.9,0.1-2.5-0.5-0.9-0.5c0-0.9-0.9-3.1,0.3-1.3
		C159.9,8.5,159.5,9.1,160.3,9.6L160.3,9.6z M160.4,9.4l-0.1-0.1L160.4,9.4z M134.5,24.2c-1.3-0.5-2.2-3-1.7-3.7
		C133.2,21.8,133.7,23.1,134.5,24.2z M138.8,21.7c-2.3,0.5,1.7-2.6,0-0.5C138.7,21.3,138.7,21.5,138.8,21.7z M150.8,14.6
		c-1.6-1.3,2.9-1.7,1-0.9C151.6,14.1,150.9,13.9,150.8,14.6z M156.4,11.3c-1.3,0.3-0.3-2.4-0.3-0.5C156.4,10.8,156.5,11,156.4,11.3z
		 M153.5,12.8c-0.9-1.2,0.3-2.7,1.3-1.7C153.7,11,153.7,12,153.5,12.8z M162.5,7.5c-0.8-0.5-2-2.7-1.4-2.6
		C161.7,5.7,162,6.7,162.5,7.5z M161.3,8.1c-1.7,0.1-0.2-1.4-1.2-2.2C161.2,6.3,160.9,7.4,161.3,8.1z M158.4,9.6
		c-0.7,0.4-1.1,0-0.7-0.4c-0.5-1.4,0.3-0.5,0.7,0.2C158.4,9.4,158.4,9.6,158.4,9.6z M136,22.5c-0.9-0.1-1.2,0.5-0.5-0.7
		C136.9,20.5,136.4,21.6,136,22.5z M148.9,14.8c-0.4-0.2-2.8,0.5-1.7-0.2C147.5,15.2,148.6,13.4,148.9,14.8z M141.5,18.7
		c-2.2,0.7,1.6-2.1,0.8-0.7C142,18.2,141.8,18.5,141.5,18.7z M134.4,22.6l-0.2,0L134.4,22.6z M148.9,14c-0.5-0.8,0.4-2.8,0.8-1.6
		C149.3,12.9,149.3,13.6,148.9,14z M156.7,9.1L156.7,9L156.7,9.1z M138.4,19.6c-2.3,0.3,1.8-2.2,0.5-0.7
		C138.6,19.1,138.2,19.3,138.4,19.6z M155.5,9.6c-1.6-0.2,0.9-1.1,0-2.1c-0.3-1.8,1.1,0.7,0.7,1.3C156.7,9.1,155.6,9.5,155.5,9.6
		L155.5,9.6z M135.9,20.6c-1.8-0.3,0.2-2.4,0.4-1.5C136,19.5,135.2,20,135.9,20.6z M158.2,7.6c-1.2,0-1.9-3.4-0.7-1.2
		C157.6,6.8,157.7,7.3,158.2,7.6z M154.4,9.7c-1.3,0.6-0.3-2-0.3-0.3l0.3,0L154.4,9.7L154.4,9.7z M151.6,11.3
		c-1.6-1.2,1.1-2.7,1-1.6C151.3,9.9,151.9,10.5,151.6,11.3z M141.6,16.9c-1.7,1-0.6-1.2,0.5-0.7C142.2,16.5,141.8,16.8,141.6,16.9z
		 M158.6,6.3c-1,0.5-0.4-2.3-0.6-2C158.7,4.8,159,5.8,158.6,6.3z M147.5,12.5c-1.5-1.2,0.6-2.2,1.2-1.7
		C147.7,11.2,147.5,11.7,147.5,12.5z M150.1,10.7c-1.1-0.1-0.1-1.9,0-0.4C150.1,10.4,150.2,10.6,150.1,10.7z M159.5,5.2
		c-1.2-0.2-0.3-1.2-1-2C159.2,3.8,159.7,4.3,159.5,5.2z M153.3,8.3c-2.1,0.1,1.1-1.4-0.2-2.4c0-0.9,1.3,1.5,0.6,1.9
		C153.7,8,153.6,8.3,153.3,8.3L153.3,8.3z M135.9,18.3c-0.5-0.3-1.3-1.6-0.2-1.2c0.2-1,1.5-0.7,0.4,0
		C135.7,17.4,135.5,17.9,135.9,18.3z M152,8.6c-1.1,0.3-0.3-2.1-0.1-0.6C152.3,7.9,152.4,8.5,152,8.6z M155.6,6
		c-0.8,0.3-2,0.4-0.9-0.4c0.2-0.9-1-2.3,0.2-0.9C155.3,5.1,155.6,5.5,155.6,6L155.6,6z M145.6,11.5c-1-0.5,0-2.4,0.3-1.4
		C145.6,10.6,145.5,11.1,145.6,11.5z M138.8,15.3c-1.5-0.3-0.1-1.4,0.7-1.1C141.4,13.8,138.3,14.7,138.8,15.3z M149.6,9.1
		c-1.6,0.2,0.6-2.1-0.8-2.6c1,0.2,1,1.6,1.1,2.4L149.7,9L149.6,9.1L149.6,9.1z M156.3,5.1c-1.2,0.3-0.7-3,0-0.9
		C156.4,4.5,156.6,4.8,156.3,5.1z M132.6,18.2c-0.6-0.5,0.9-1.1,0.1-0.2l0,0.1L132.6,18.2L132.6,18.2z M136.4,15.7
		c-1.8-0.5,1-2.5,0.7-1.3C136.6,14.7,136.2,15.2,136.4,15.7z M133.9,17.1c-1.5,0.7,1.1-1.4,0.2-0.1C134.1,17.1,134,17.1,133.9,17.1z
		 M157.3,3.6c-1.4,0.8-0.6-2,0-0.3C157.3,3.4,157.3,3.5,157.3,3.6z M151.3,7.1c-0.8-0.2-1.7,0.3-0.6-0.5c0.5-0.6-0.7-2.4,0.5-1
		C151.6,5.8,151.5,6.6,151.3,7.1L151.3,7.1z M140.5,12.4c-0.6,0.4-2.5,0.5-1.3-0.1C139.5,12.4,141,11.5,140.5,12.4z M147.4,8.2
		c-1.6,0.4-0.8-1,0.3-0.6c0.8-0.8,0.9,0-0.1,0.2L147.4,8L147.4,8.2L147.4,8.2z M152.9,4.7c-0.9,0.5-1.8,0.5-0.7-0.3
		C151.3,2.9,152.5,3.9,152.9,4.7z M156.4,2.5c-1.3,0-0.1-1.6,0.6-0.7C155.9,1.4,156.4,1.9,156.4,2.5z M153.1,3.8
		c-0.6-0.2,0.9-0.8,0-1.1C154.1,3,153.9,3.5,153.1,3.8z M146.9,7.3c-0.2-0.6-0.8-1.7,0.1-0.6C147,6.9,147.1,7.2,146.9,7.3z
		 M148.6,5.8c-1.3,1.2-0.5-2.1,0-0.3C148.6,5.6,148.7,5.7,148.6,5.8z M137.8,12c-1.6,0.9-1-0.8,0.2-0.2l0,0.1L137.8,12L137.8,12z
		 M154.7,2c-1.3,0.2,0-1.3-0.2-0.4C153.6,1.9,155.2,1.6,154.7,2z M145.2,7.3c-1.2,0.8-1.3,0.1-0.3-0.5C145.7,6.5,146,6.9,145.2,7.3z
		 M149.8,4.5c-2.3-0.2,1.6-1.4,0.8-0.8C150,3.6,150.3,4.4,149.8,4.5z M155.1,1.2L155.1,1.2L155.1,1.2z M153,2.3
		c-1.3,0.3-1-1-0.2-0.2C152.8,2.1,153.1,2.2,153,2.3z M152,2.6c-1.2,0.3-1.7-0.8-0.3-0.2L152,2.6z M134.8,12.2
		c-0.7-0.7,1.9-0.7,0.2-0.1C134.9,12.1,134.8,12.1,134.8,12.2z M139.2,9.7c-0.9,0.3-1.3,0-0.3-0.3c0.2-0.6-0.5-2.9,0.5-1.3
		C139.6,8.7,139.4,9.3,139.2,9.7L139.2,9.7z M145.8,5.9c-1.8-0.2,0.3-1.2,1-0.8C146.5,5.3,146,5.4,145.8,5.9z M136,11.5L136,11.5
		L136,11.5z M135.1,11.2c-0.7-0.8,2-1.6,0.2-0.7C135.1,10.8,135.5,11.2,135.1,11.2z M135,10.6c0.1-0.8,1.3-1.1,0.3-0.2L135,10.6z
		 M151.8,1.3c-1.3,0.4-0.3-1.2-0.2-0.3C151.8,1,152,1.3,151.8,1.3z M143.4,6.1c-1.7,0.2,0.7-1.8,0.5-0.6C143,5,143.6,5.8,143.4,6.1z
		 M147.9,3.5c-0.8,0.6-3.7-0.4-1.4-0.3C146.9,3.2,147.5,3.2,147.9,3.5z M149.1,2.3c-0.9-0.1-3.4,0.3-3.1-0.3
		C147.1,1.7,148.1,2.3,149.1,2.3z M149.6,1.6c-0.6-0.4-3.3,0.1-1.3-0.4C148.9,1.2,149.8,0.8,149.6,1.6z M143.7,4.5
		c-1,0.1-1.7-0.8-0.2-0.5C144.3,3.7,144.1,4,143.7,4.5z M138.5,7.3c0.5-1.4-2,0.9-0.6-0.7c0.6-0.6,1.2-1.7,1-0.1
		C138.9,6.8,138.8,7.3,138.5,7.3L138.5,7.3z"/>
	
		<linearGradient id="path6354_00000181070735769663488920000005788374575302760357_" gradientUnits="userSpaceOnUse" x1="150.1688" y1="1740.2126" x2="150.1688" y2="1664.7126" gradientTransform="matrix(0.2163 -0.1248 0.1248 0.2163 -108.0827 -324.5851)">
		<stop  offset="0" style="stop-color:#6D674F"/>
		<stop  offset="0.6971" style="stop-color:#BBBBBB"/>
		<stop  offset="1" style="stop-color:#6D674F"/>
	</linearGradient>
	<path id="path6354" style="fill:url(#path6354_00000181070735769663488920000005788374575302760357_);" d="M145.9,36.6l-3.3,0
		c-2.2-2.8-4.5-6.1-6.5-9.7c-2.2-3.8-4-7.5-5.3-11.1l1.6-2.9c1.6,3.5,4.2,8.5,6.3,12.2C140.7,28.9,143.7,33.6,145.9,36.6L145.9,36.6
		z"/>
	
		<linearGradient id="path6356_00000131330051829183347880000016303707803187733691_" gradientUnits="userSpaceOnUse" x1="161.9358" y1="1654.8512" x2="157.9358" y2="1759.3512" gradientTransform="matrix(0.2163 -0.1248 0.1248 0.2163 -99.1627 -330.6051)">
		<stop  offset="0" style="stop-color:#6D674F"/>
		<stop  offset="0.574" style="stop-color:#BBBBBB"/>
		<stop  offset="1" style="stop-color:#6D674F"/>
	</linearGradient>
	<path id="path6356" style="fill:url(#path6356_00000131330051829183347880000016303707803187733691_);" d="M160.9,34.2l-3.4,2
		c-7.8-5.5-15.6-22.2-19.3-32.1l3.9-2.3C143.8,10.9,155.3,29.9,160.9,34.2L160.9,34.2z"/>
	
		<linearGradient id="SVGID_1_" gradientUnits="userSpaceOnUse" x1="390.4657" y1="-781.5168" x2="420.5558" y2="-798.8468" gradientTransform="matrix(-1.018 0 0 -1.018 490.3167 -738.2263)">
		<stop  offset="0" style="stop-color:#5A5A5A"/>
		<stop  offset="1" style="stop-color:#1E1E1E"/>
	</linearGradient>
	<path class="st9" d="M65.3,73.4c2.3,0.6,4.8,1.4,6.2,3.5c1,1.4,1.5,4.8,2.2,8.1c2.6-1.4,5.1-2.8,7.8-4.1c1.7-0.8,3.4-1.6,5.2-2.4
		c0.3-2.9,0.6-5.5,1.1-7.3c1.6-5.1,6.1-8.6,9.7-12.3c-0.4-7-0.8-14.1-1.2-21.1C83.5,45.9,70.8,53.9,58.1,62c-0.7,0.6-2.5,1-1.7,2.2
		C59.2,67.4,61.5,71.3,65.3,73.4z"/>
	<g class="st10">
		<path class="st11" d="M76.2,78.6c1,1.4,3.9,2.1,5.5,2.2c0.6-0.3,1.3-0.6,1.9-0.9c0.3-0.3,0.6-0.7,0.9-1c0.8-0.6,1.8-8.9,2.7-11.6
			c0.9-2.8,8-9,8-9l-1-10.8L59.9,68c0,0,6.1,2.5,9.8,2.5C73.4,70.5,74.9,76.9,76.2,78.6z"/>
	</g>
	<path id="path6362" class="st12" d="M97.4,58.9L65.3,73.4c0,0-6.2-6-9-9.3c-0.7-1.2,1.1-1.6,1.7-2.2c12.7-8.1,25.4-16.1,38.1-24.2
		C96.6,44.8,97.4,58.9,97.4,58.9L97.4,58.9z"/>
	<path id="path6364" class="st13" d="M131,16.6c-18.9,12.9-83,53-101.8,66c-1.2,0.7-0.7,3.8,1.2,7c1.8,3.2,4.3,5.2,5.5,4.5
		c20.6-10,86.1-47.4,106.7-57.4c-2.3-2.8-4.5-6-6.6-9.6C134,23.5,132.3,19.9,131,16.6L131,16.6z"/>
	<g id="path6366" class="st14">
		
			<linearGradient id="SVGID_00000109713742811743189690000000123282773272102280_" gradientUnits="userSpaceOnUse" x1="-98.7155" y1="-1675.6454" x2="-97.6655" y2="-1717.6155" gradientTransform="matrix(0.2163 -0.1248 -0.1128 -0.1953 -88.5421 -289.7403)">
			<stop  offset="0" style="stop-color:#FFFFFF;stop-opacity:8.235300e-02"/>
			<stop  offset="0.4861" style="stop-color:#FFFFFF;stop-opacity:0.8863"/>
			<stop  offset="1" style="stop-color:#FFFFFF;stop-opacity:8.235300e-02"/>
		</linearGradient>
		<path style="fill:url(#SVGID_00000109713742811743189690000000123282773272102280_);" d="M131.2,16.3l-56.4,39l0,0
			c0,0-45,27.5-45.1,27.5c-1.2,0.7-0.8,3.6,0.9,6.5l105.8-61.5c-2.1-2.5,1.7,2.3-0.2-1C134.3,23.6,132.2,19.4,131.2,16.3L131.2,16.3
			z"/>
	</g>
</g>
<line class="st16" x1="70.1" y1="76.2" x2="92.6" y2="64"/>
<rect x="69.8" y="68.5" transform="matrix(0.8801 -0.4747 0.4747 0.8801 -25.2654 50.0085)" class="st17" width="33.2" height="13.1"/>
</svg>
